HIERARCHY
ROOT Hips
{
  OFFSET -102.467 93.6631 130.069
  CHANNELS 6 Xposition Yposition Zposition Zrotation Xrotation Yrotation
  JOINT LeftUpLeg
  {
    OFFSET 8.64259 1.95398 -2.38835
    CHANNELS 3 Zrotation Xrotation Yrotation
    JOINT LeftLeg
    {
      OFFSET 43.7702 0 0
      CHANNELS 3 Zrotation Xrotation Yrotation
      JOINT LeftFoot
      {
        OFFSET 40.6238 0 0
        CHANNELS 3 Zrotation Xrotation Yrotation
        JOINT LeftToeBase
        {
          OFFSET 12.7242 0 0
          CHANNELS 3 Zrotation Xrotation Yrotation
          End Site
          {
            OFFSET 0 0 0
          }
        }
      }
    }
  }
  JOINT RightUpLeg
  {
    OFFSET -8.2249 1.95398 -2.59336
    CHANNELS 3 Zrotation Xrotation Yrotation
    JOINT RightLeg
    {
      OFFSET 43.5653 0 0
      CHANNELS 3 Zrotation Xrotation Yrotation
      JOINT RightFoot
      {
        OFFSET 40.6238 0 0
        CHANNELS 3 Zrotation Xrotation Yrotation
        JOINT RightToeBase
        {
          OFFSET 12.7242 0 0
          CHANNELS 3 Zrotation Xrotation Yrotation
          End Site
          {
            OFFSET 0 0 0
          }
        }
      }
    }
  }
  JOINT Spine
  {
    OFFSET 0.165834 0.87714 6.61349
    CHANNELS 3 Zrotation Xrotation Yrotation
    JOINT Spine1
    {
      OFFSET 7.38963 1.71661e-005 0
      CHANNELS 3 Zrotation Xrotation Yrotation
      JOINT Spine2
      {
        OFFSET 11.9445 1.14441e-005 0
        CHANNELS 3 Zrotation Xrotation Yrotation
        JOINT Spine3
        {
          OFFSET 14.7254 4.19617e-005 0
          CHANNELS 3 Zrotation Xrotation Yrotation
          JOINT Spine4
          {
            OFFSET 10.9679 0 0
            CHANNELS 3 Zrotation Xrotation Yrotation
            JOINT RightShoulder
            {
              OFFSET 2.46616 -1.6653 3.69651
              CHANNELS 3 Zrotation Xrotation Yrotation
              JOINT RightArm
              {
                OFFSET 13.0012 0 0
                CHANNELS 3 Zrotation Xrotation Yrotation
                JOINT RightForeArm
                {
                  OFFSET 28.7848 1.52588e-005 0
                  CHANNELS 3 Zrotation Xrotation Yrotation
                  JOINT RightHand
                  {
                    OFFSET 26.5688 1.52588e-005 0
                    CHANNELS 3 Zrotation Xrotation Yrotation
                    End Site
                    {
                      OFFSET 0 0 0
                    }
                  }
                }
              }
            }
            JOINT LeftShoulder
            {
              OFFSET 2.38034 -1.29275 -3.7523
              CHANNELS 3 Zrotation Xrotation Yrotation
              JOINT LeftArm
              {
                OFFSET 16.3182 6.10351e-005 0
                CHANNELS 3 Zrotation Xrotation Yrotation
                JOINT LeftForeArm
                {
                  OFFSET 27.0901 0 0
                  CHANNELS 3 Zrotation Xrotation Yrotation
                  JOINT LeftHand
                  {
                    OFFSET 24.5451 1.52588e-005 0
                    CHANNELS 3 Zrotation Xrotation Yrotation
                    End Site
                    {
                      OFFSET 0 0 0
                    }
                  }
                }
              }
            }
            JOINT Neck
            {
              OFFSET 5.0226 -0.0266342 0
              CHANNELS 3 Zrotation Xrotation Yrotation
              JOINT Head
              {
                OFFSET 6.69363 2.86102e-005 0
                CHANNELS 3 Zrotation Xrotation Yrotation
                End Site
                {
                  OFFSET 0 0 0
                }
              }
            }
          }
        }
      }
    }
  }
}
MOTION
Frames:	9
Frame Time:	0.0416667
-308.679 70.7594 299.194 100.202 39.0583 109.173 -170.404 -7.75083 104.342 -69.0701 -43.0786 7.0554 112.347 -38.8875 -37.1304 15.867 1.7489 -5.30025 154.318 -55.6542 31.5455 -43.4578 15.7086 73.8657 15.5579 42.6722 40.824 -70.4055 -15.1911 48.039 0.887013 4.28528 -92.5597 18.2843 0.398613 -5.27535 6.6027 0.166372 -5.28772 -15.8559 1.96376 -4.91334 4.15678 1.96375 -4.91333 120.382 -9.79723 -29.9384 98.0517 -78.808 87.93 -31.0571 8.58363 -61.7148 -30.6313 -27.7176 80.1085 -55.7214 -43.0646 132.718 -56.1254 64.4234 30.6268 18.164 -23.0948 -66.485 30.2697 -11.1007 -40.8119 -85.8492 -14.36 0.605624 22.703 -20.2918 -18.3272 
-310.415 69.0048 301.349 99.8106 38.9074 109.022 -171.489 -4.32544 104.352 -74.3919 -43.8946 7.52052 114.419 -40.6599 -35.7619 16.7242 1.60635 -5.21949 165.008 -47.1313 45.4212 -34.7426 0.330206 89.6795 66.8686 37.6712 18.1685 -51.6061 -16.389 54.0092 0.910663 4.25711 -92.5427 18.3422 0.452384 -5.25237 6.66067 0.221116 -5.26715 -15.7992 2.00818 -4.8753 4.2135 2.00818 -4.87531 120.501 -9.84953 -29.6969 94.8116 -79.024 85.3957 -30.9833 9.67587 -62.5428 -26.4555 -24.2189 81.041 -55.8424 -44.6054 131.897 -57.7989 63.6494 33.9821 18.1326 -24.3819 -67.2973 30.3719 -11.2094 -41.0366 -85.8613 -14.1545 0.748759 22.4277 -20.1345 -18.9779 
-317.267 62.0617 309.046 98.6725 38.4358 108.542 -174.326 7.31352 98.3878 -95.3695 -46.0348 8.86564 124.404 -46.6105 -28.7289 18.9724 1.24121 -5.12874 159.792 -24.364 86.6332 165.581 -56.2048 -101.958 91.6099 -5.42172 -88.3075 -51.2049 -35.5869 146.797 0.984298 4.17603 -92.4911 18.5094 0.619869 -5.18392 6.8282 0.391424 -5.2061 -15.6355 2.14747 -4.75975 4.37716 2.14747 -4.75976 120.839 -9.99637 -29.0093 84.0497 -79.5097 76.666 -30.8245 12.3895 -64.775 -17.2954 -15.9832 82.3755 -56.3738 -49.35 129.282 -61.3471 60.6373 42.4623 17.8904 -27.8096 -69.8808 30.6603 -11.5303 -41.7051 -85.8952 -13.5445 1.16107 21.6619 -19.6572 -20.8703 
-317.928 63.053 309.7 96.8389 37.5898 107.644 -174.334 5.0771 94.3629 -89.5501 -49.7359 11.1568 119.453 -48.4838 -30.6981 22.0647 0.743077 -5.36355 158.042 -27.4363 100.171 166.763 -46.6477 -98.7528 31.8202 5.75898 -70.4716 67.2965 -44.3754 -58.4537 1.11862 4.04865 -92.4035 18.7729 0.922649 -5.07258 7.09226 0.698796 -5.10815 -15.3783 2.40299 -4.56267 4.63431 2.403 -4.56268 121.375 -10.2198 -27.9283 62.8844 -79.5475 58.7481 -30.3195 15.577 -68.2557 -8.53391 -7.63007 82.7585 -57.951 -57.7216 124.342 -62.9404 54.0031 52.049 16.9118 -32.1887 -74.6035 31.0939 -12.066 -42.8429 -85.9471 -12.5221 1.81223 20.5492 -18.8319 -23.921 
-319.746 63.0502 312.3 94.3885 36.3549 106.2 -175.252 4.87448 88.4447 -85.8528 -54.3164 14.4365 113.641 -51.8886 -32.7579 25.6576 0.121246 -6.29083 163.081 -24.5861 94.6864 -178.215 -56.9889 -91.7251 41.9091 -4.46831 -67.2672 83.9821 -47.2586 -38.6201 1.32554 3.88885 -92.2845 19.1054 1.38268 -4.93347 7.42566 1.16448 -4.98935 -15.0553 2.80018 -4.29182 4.95735 2.80018 -4.29183 122.087 -10.4906 -26.4922 33.2491 -77.2786 33.4838 -28.5836 18.2624 -73.4114 -2.5347 -1.87883 82.965 -62.1834 -69.3331 116.116 -60.2484 43.7758 59.4147 14.7973 -35.648 -81.1514 31.5923 -12.8268 -44.5255 -86.022 -11.0879 2.65723 19.3294 -17.6498 -27.9951 
-322.65 62.1054 316.081 91.4655 34.8297 104.124 -176.213 5.94569 80.9783 -83.2133 -59.2613 18.7816 106.171 -56.0719 -35.646 29.6678 -0.717075 -8.28316 166.326 -23.4996 90.1008 -169.568 -62.0962 -86.7972 46.2791 -6.80364 -61.9418 94.7182 -47.6434 -29.5237 1.60667 3.72032 -92.1501 19.4594 1.99549 -4.79925 7.78082 1.7826 -4.88218 -14.7141 3.34457 -3.97962 5.29856 3.34457 -3.97962 122.953 -10.7812 -24.7453 7.36451 -70.5963 12.9989 -24.4214 19.5149 -80.79 0.581527 1.14843 83.7501 -74.0221 -81.2684 101.071 -56.5897 32.0943 64.6957 13.3051 -36.9909 -87.3341 31.9969 -13.8141 -46.8984 -86.1586 -9.28582 3.63426 18.3479 -16.1735 -32.818 
-326.19 60.6291 320.586 88.2929 33.2297 101.43 -176.827 8.18475 72.8129 -81.0097 -63.726 23.9325 95.4824 -60.5034 -40.6794 34.1556 -1.97996 -11.8104 168.546 -23.264 84.7349 -163.755 -65.9621 -83.9561 49.5063 -6.69741 -58.1699 104.601 -48.2031 -22.2857 1.94325 3.57374 -92.023 19.7726 2.71364 -4.70578 8.09552 2.50417 -4.82035 -14.4166 4.00157 -3.67436 5.59601 4.0016 -3.67437 123.956 -11.1188 -22.7808 -10.0776 -58.7533 1.89363 -16.8162 17.8689 -90.2432 1.06887 1.83461 85.6149 -169.949 -88.0065 3.67574 -56.6548 20.1462 68.5447 15.1697 -36.7417 -91.2079 32.0856 -14.9967 -50.1249 -86.4388 -7.21904 4.67367 17.9946 -14.5636 -37.9245 
-330.269 58.7512 325.65 85.1377 31.8227 98.2522 -176.829 11.072 64.5932 -80.1369 -66.9532 28.8713 79.5545 -64.4817 -49.5679 39.1784 -4.05639 -17.5529 169.664 -23.8723 78.7573 -160.781 -69.1979 -83.8145 51.9864 -5.44487 -55.8104 113.786 -48.6907 -16.1277 2.29961 3.47899 -91.9308 19.9837 3.45404 -4.68806 8.30833 3.24462 -4.83521 -14.2228 4.70247 -3.43438 5.78985 4.70248 -3.43439 125.089 -11.5845 -20.7313 -22.3824 -41.7885 -3.13531 -5.68317 11.5765 -99.8312 -0.912524 -0.700682 88.3548 126.624 -83.8091 -60.0291 -60.2294 7.97897 70.5614 18.9831 -35.2154 -93.5201 31.647 -16.2815 -54.2594 -86.9594 -5.11686 5.71772 18.5263 -13.1183 -42.7505 
-334.856 56.6712 331.169 82.2318 30.8172 94.8122 -176.191 14.5413 56.9888 -82.3526 -68.399 31.6573 56.2184 -66.6339 -63.8602 44.529 -7.55786 -26.3381 169.661 -25.1507 72.5677 -161.229 -72.0345 -87.1056 53.9519 -3.50897 -54.68 122.113 -49.1067 -10.9158 2.63758 3.4535 -91.904 20.0561 4.12708 -4.78338 8.38228 3.91279 -4.96003 -14.1665 5.37294 -3.32229 5.84617 5.37296 -3.32229 126.338 -12.2464 -18.7304 -32.4875 -20.4737 -4.78337 8.20087 0.388181 -105.592 -4.92665 -4.81684 90.9854 116.252 -80.6347 -70.2216 -64.6266 -2.84333 71.3622 20.372 -32.174 -96.0053 30.3982 -17.4792 -59.3366 -87.7917 -3.34205 6.74271 19.8867 -12.1989 -46.8659 
